<?xml version="1.0" standalone="no"?>
<!DOCTYPE svg PUBLIC "-//W3C//DTD SVG 20010904//EN"
 "http://www.w3.org/TR/2001/REC-SVG-20010904/DTD/svg10.dtd">
<svg version="1.0" xmlns="http://www.w3.org/2000/svg"
 width="1000.000000pt" height="1000.000000pt" viewBox="0 0 1000.000000 1000.000000"
 preserveAspectRatio="xMidYMid meet">

<g transform="translate(0.000000,1000.000000) scale(0.100000,-0.100000)"
fill="#000000" stroke="none">
<path d="M4760 9994 c-149 -10 -336 -27 -430 -40 -1597 -219 -2976 -1174
-3739 -2590 -302 -561 -484 -1148 -568 -1834 -26 -209 -26 -851 0 -1060 84
-686 266 -1273 568 -1834 764 -1417 2151 -2377 3744 -2590 241 -33 361 -40
660 -40 299 0 419 7 660 40 1593 213 2980 1173 3744 2590 288 535 476 1124
555 1739 23 182 46 489 46 625 0 317 -56 780 -136 1126 -449 1946 -2016 3438
-3984 3793 -282 51 -491 70 -805 75 -143 2 -285 2 -315 0z m527 -479 c646 -55
1151 -189 1691 -450 1153 -559 2011 -1582 2372 -2830 101 -349 180 -890 180
-1233 0 -134 -24 -431 -51 -625 -132 -968 -588 -1888 -1273 -2567 l-126 -125
0 466 0 466 49 65 c290 383 526 884 650 1376 82 328 114 591 114 947 0 356
-32 619 -114 947 -142 566 -402 1079 -780 1543 -53 65 -58 76 -68 145 -60 397
-243 689 -586 936 -193 139 -520 279 -845 362 -429 111 -1055 161 -1765 141
-856 -23 -1417 -126 -1880 -344 -406 -191 -669 -453 -819 -817 -45 -109 -90
-283 -107 -412 -11 -85 -18 -106 -46 -145 -276 -384 -447 -708 -582 -1104
-141 -413 -204 -799 -204 -1252 0 -356 32 -619 114 -947 125 -499 348 -970
657 -1386 l62 -84 0 -454 0 -454 511 0 511 0 112 -64 c466 -267 961 -426 1531
-492 191 -22 609 -22 800 0 570 66 1065 225 1531 492 l112 64 518 0 519 -1
-55 -50 c-501 -455 -1169 -819 -1838 -998 -421 -113 -748 -156 -1192 -155
-406 0 -712 37 -1085 131 -1107 277 -2054 947 -2680 1893 -408 616 -648 1289
-732 2050 -21 193 -24 666 -5 850 97 936 424 1739 1000 2455 123 152 411 447
567 580 675 574 1490 937 2355 1050 344 44 601 53 877 30z m231 -1569 c315
-36 517 -84 692 -167 123 -59 206 -119 274 -200 l49 -59 453 0 452 0 121 -126
c67 -70 121 -131 121 -135 0 -5 -423 -9 -940 -9 l-940 0 0 -288 0 -287 438 3
c240 2 435 2 432 -1 -14 -14 -318 -93 -490 -127 -366 -73 -779 -106 -1200 -97
-630 15 -1028 80 -1290 213 -110 55 -133 72 -203 141 -112 112 -165 263 -155
448 24 433 416 640 1333 705 182 13 687 4 853 -14z m2647 -1441 c455 -948 451
-2091 -9 -3025 l-71 -145 -3 993 -2 992 -573 0 -574 0 -20 -22 c-11 -13 -444
-616 -963 -1340 -518 -725 -945 -1318 -949 -1318 -3 0 -431 597 -951 1327
-520 729 -951 1332 -958 1339 -11 12 -117 14 -588 14 l-574 0 -2 -1002 -3
-1003 -76 155 c-422 854 -468 1852 -128 2768 57 155 227 508 238 495 4 -4 17
-43 29 -85 180 -637 754 -1030 1725 -1182 259 -41 731 -76 1020 -76 l137 0 0
-115 0 -115 -285 0 -285 0 0 -145 0 -145 285 0 285 0 0 -285 0 -285 145 0 145
0 0 285 0 285 275 0 275 0 0 145 0 145 -275 0 -275 0 0 115 c0 135 -24 118
193 135 430 33 849 153 1180 338 148 83 252 160 374 276 56 54 103 96 103 93
0 -3 -9 -45 -21 -94 -36 -153 -59 -294 -66 -410 l-6 -113 572 0 571 0 0 73 c0
39 -7 288 -15 552 -8 264 -15 516 -15 560 l0 80 37 -65 c20 -36 64 -123 98
-195z m-3160 -4820 l689 0 607 843 c334 464 610 846 613 850 3 3 6 -291 6
-654 l0 -660 -112 -68 c-825 -500 -1848 -633 -2786 -362 -272 79 -611 227
-832 364 l-95 58 -3 663 -2 663 613 -848 614 -849 688 0z"/>
</g>
</svg>
